700 0 4 0           
30 Autodesk Translation Framework 22 ASM 223.23.0.65535 OSX 24 Sun Apr 15 16:18:22 2018 
1 9.999999999999999547e-07 1.000000000000000036e-10 
body $4 -1 $-1 $5 $-1 $6 #
body $7 -1 $-1 $8 $-1 $9 #
body $10 -1 $-1 $11 $-1 $12 #
body $13 -1 $-1 $14 $-1 $15 #
rgb_color-st-attrib $-1 -1 $16 $-1 $0 0.627450980392156854 0.627450980392156854 0.627450980392156854 #
lump $-1 -1 $-1 $-1 $17 $0 #
transform $-1 -1 1 0 0 0 1 0 0 0 1 0 0 0 1 no_rotate no_reflect no_shear #
rgb_color-st-attrib $-1 -1 $18 $-1 $1 0.627450980392156854 0.627450980392156854 0.627450980392156854 #
lump $-1 -1 $-1 $-1 $19 $1 #
transform $-1 -1 1 0 0 0 1 0 0 0 1 0 0 0 1 no_rotate no_reflect no_shear #
rgb_color-st-attrib $-1 -1 $20 $-1 $2 0.627450980392156854 0.627450980392156854 0.627450980392156854 #
lump $-1 -1 $-1 $-1 $21 $2 #
transform $-1 -1 1 0 0 0 1 0 0 0 1 0 0 0 1 no_rotate no_reflect no_shear #
rgb_color-st-attrib $-1 -1 $22 $-1 $3 0.627450980392156854 0.627450980392156854 0.627450980392156854 #
lump $-1 -1 $-1 $-1 $23 $3 #
transform $-1 -1 1 0 0 0 1 0 0 0 1 0 0 0 1 no_rotate no_reflect no_shear #
ATTRIB_CUSTOM-attrib $-1 -1 $-1 $4 $0 @20 Timestamp_attrib_def 1 1522348568927949 #
shell $24 -1 $-1 $-1 $-1 $25 $-1 $5 #
ATTRIB_CUSTOM-attrib $-1 -1 $-1 $7 $1 @20 Timestamp_attrib_def 1 1523823112172923 #
shell $26 -1 $-1 $-1 $-1 $27 $-1 $8 #
DXID-attrib $-1 -1 $-1 $10 $2 @10 ASM ENTITY @240 {"label":"Body1","asset":"cfc6791e-3caf-4689-8825-464b2970a348","segment":"0","entity":"220","revision":"6b4b5537-a6e4-4e6e-ab9c-13ecd177ad60","meta":"D3937028-C20C-4E65-B010-94AD418A5C20","metaName":"BodyMetaType","extra":""}:FlattenCopy:1 #
shell $28 -1 $-1 $-1 $-1 $29 $-1 $11 #
ATTRIB_CUSTOM-attrib $-1 -1 $-1 $13 $3 @20 Timestamp_attrib_def 1 1523823108044505 #
shell $30 -1 $-1 $-1 $-1 $31 $-1 $14 #
string_attrib-name_attrib-gen-attrib $-1 -1 $-1 $-1 $17 keep keep_kept ignore copy @17 ATF_ExternalShell @4 true #
face $32 -1 $-1 $33 $34 $17 $-1 $35 reversed single #
string_attrib-name_attrib-gen-attrib $-1 -1 $-1 $-1 $19 keep keep_kept ignore copy @17 ATF_ExternalShell @4 true #
face $36 -1 $-1 $37 $38 $19 $-1 $39 forward single #
string_attrib-name_attrib-gen-attrib $-1 -1 $-1 $-1 $21 keep keep_kept ignore copy @17 ATF_ExternalShell @4 true #
face $40 -1 $-1 $41 $42 $21 $-1 $43 forward single #
string_attrib-name_attrib-gen-attrib $-1 -1 $-1 $-1 $23 keep keep_kept ignore copy @17 ATF_ExternalShell @4 true #
face $44 -1 $-1 $45 $46 $23 $-1 $47 forward single #
DXID-attrib $-1 -1 $-1 $-1 $25 @10 ASM ENTITY @1 0 #
face $48 -1 $-1 $49 $50 $17 $-1 $51 forward single #
loop $-1 -1 $-1 $52 $53 $25 #
cone-surface $-1 -1 $-1 204.7748613665647213 1.853877894428165973 -6.628739260994029436 5.273559366969490412e-15 -1 1.006139616066540966e-16 -39.99999999999992184 -2.109423746787792378e-13 3.087807787238709134e-15 1 I I 0 1 39.99999999999992184 forward I I I I #
DXID-attrib $-1 -1 $-1 $-1 $27 @10 ASM ENTITY @1 0 #
face $54 -1 $-1 $55 $56 $19 $-1 $57 forward single #
loop $-1 -1 $-1 $58 $59 $27 #
cone-surface $-1 -1 $-1 254.7748613665659434 -198.1461221055710666 78.37126073900597589 -1.571861241325646526e-31 3.67236218689814023e-16 1 25 1.318389841742372634e-13 -4.448639692073899989e-29 1 I I 0 1 25 forward I I I I #
DXID-attrib $-1 -1 $-1 $-1 $29 @10 ASM ENTITY @1 0 #
face $60 -1 $-1 $61 $62 $21 $-1 $63 forward single #
loop $-1 -1 $-1 $64 $65 $29 #
cone-surface $-1 -1 $-1 254.7748613665655739 -198.1461221055711803 -91.62873926099372568 -7.23825098189627004e-32 3.67236218689814023e-16 1 25 1.318389841742372634e-13 -4.660648727857904694e-29 1 I I 0 1 25 forward I I I I #
DXID-attrib $-1 -1 $-1 $-1 $31 @10 ASM ENTITY @1 0 #
face $66 -1 $-1 $67 $68 $23 $-1 $69 forward single #
loop $-1 -1 $-1 $70 $71 $31 #
cone-surface $-1 -1 $-1 204.7748613665672792 -18.14612210557214667 -6.628739260994026772 -7.76691435384906885e-33 1 -1.00613961606654491e-16 40 1.916034650874912333e-59 -3.08780778723869454e-15 1 I I 0 1 40 forward I I I I #
DXID-attrib $-1 -1 $-1 $-1 $33 @10 ASM ENTITY @1 1 #
face $72 -1 $-1 $73 $74 $17 $-1 $75 forward single #
loop $-1 -1 $-1 $-1 $76 $33 #
plane-surface $-1 -1 $-1 204.774861366564835 -18.14612210557177718 -6.628739260994026772 -5.273559366969490412e-15 1 -1.006139616066540966e-16 -9.99999999999998046 -5.273559366969480945e-14 7.719519468096772835e-16 forward_v I I I I #
loop $-1 -1 $-1 $-1 $77 $25 #
coedge $-1 -1 $-1 $53 $53 $76 $78 forward $34 $-1 #
DXID-attrib $-1 -1 $-1 $-1 $37 @10 ASM ENTITY @1 1 #
face $79 -1 $-1 $-1 $80 $19 $-1 $81 forward single #
loop $-1 -1 $-1 $-1 $82 $37 #
plane-surface $-1 -1 $-1 254.7748613665659434 -198.1461221055710666 68.37126073900597589 1.571861241325646526e-31 -3.67236218689814023e-16 -1 -10 -5.273559366969490412e-14 1.779455876829560108e-29 forward_v I I I I #
loop $-1 -1 $-1 $-1 $83 $27 #
coedge $-1 -1 $-1 $59 $59 $82 $84 reversed $38 $-1 #
DXID-attrib $-1 -1 $-1 $-1 $41 @10 ASM ENTITY @1 1 #
face $85 -1 $-1 $-1 $86 $21 $-1 $87 forward single #
loop $-1 -1 $-1 $-1 $88 $41 #
plane-surface $-1 -1 $-1 254.7748613665655739 -198.1461221055711803 -101.6287392609937257 7.23825098189627004e-32 -3.67236218689814023e-16 -1 -10 -5.273559366969490412e-14 1.86425949114316199e-29 forward_v I I I I #
loop $-1 -1 $-1 $-1 $89 $29 #
coedge $-1 -1 $-1 $65 $65 $88 $90 reversed $42 $-1 #
DXID-attrib $-1 -1 $-1 $-1 $45 @10 ASM ENTITY @1 1 #
face $91 -1 $-1 $-1 $92 $23 $-1 $93 reversed single #
loop $-1 -1 $-1 $-1 $94 $45 #
plane-surface $-1 -1 $-1 204.7748613665672792 481.8538778944278533 -6.628739260994077398 -7.76691435384906885e-33 1 -1.00613961606654491e-16 10 4.790086627187280833e-60 -7.71951946809673635e-16 forward_v I I I I #
loop $-1 -1 $-1 $-1 $95 $31 #
coedge $-1 -1 $-1 $71 $71 $94 $96 reversed $46 $-1 #
DXID-attrib $-1 -1 $-1 $-1 $49 @10 ASM ENTITY @1 2 #
face $97 -1 $-1 $98 $99 $17 $-1 $100 forward single #
loop $-1 -1 $-1 $-1 $101 $49 #
plane-surface $-1 -1 $-1 254.7748613665656308 -198.1461221055711519 68.37126073900580536 1 5.2735593669694912e-15 -7.719519468096787872e-17 -7.719519468096719587e-16 -1.006139616066542987e-15 -9.99999999999998046 forward_v I I I I #
coedge $-1 -1 $-1 $76 $76 $53 $78 reversed $50 $-1 #
coedge $102 -1 $-1 $77 $77 $103 $104 reversed $52 $-1 #
edge $-1 -1 $-1 $105 -3.141592653589793116 $105 3.141592653589793116 $53 $106 forward @7 unknown #
DXID-attrib $-1 -1 $-1 $-1 $55 @10 ASM ENTITY @1 2 #
loop $-1 -1 $-1 $-1 $107 $55 #
plane-surface $-1 -1 $-1 254.7748613665659434 -198.1461221055710666 88.37126073900597589 -1.571861241325646526e-31 3.67236218689814023e-16 1 10 5.273559366969490412e-14 -1.779455876829560108e-29 forward_v I I I I #
coedge $-1 -1 $-1 $82 $82 $59 $84 forward $56 $-1 #
coedge $-1 -1 $-1 $83 $83 $107 $108 reversed $58 $-1 #
edge $-1 -1 $-1 $109 0 $109 6.283185307179586232 $82 $110 forward @7 unknown #
DXID-attrib $-1 -1 $-1 $-1 $61 @10 ASM ENTITY @1 2 #
loop $-1 -1 $-1 $-1 $111 $61 #
plane-surface $-1 -1 $-1 254.7748613665655739 -198.1461221055711803 -81.62873926099372568 -7.23825098189627004e-32 3.67236218689814023e-16 1 10 5.273559366969490412e-14 -1.86425949114316199e-29 forward_v I I I I #
coedge $-1 -1 $-1 $88 $88 $65 $90 forward $62 $-1 #
coedge $-1 -1 $-1 $89 $89 $111 $112 reversed $64 $-1 #
edge $-1 -1 $-1 $113 0 $113 6.283185307179586232 $88 $114 forward @7 unknown #
DXID-attrib $-1 -1 $-1 $-1 $67 @10 ASM ENTITY @1 2 #
loop $-1 -1 $-1 $-1 $115 $67 #
plane-surface $-1 -1 $-1 204.7748613665672792 -18.14612210557214667 -6.628739260994026772 -7.76691435384906885e-33 1 -1.00613961606654491e-16 10 4.790086627187280833e-60 -7.71951946809673635e-16 forward_v I I I I #
coedge $-1 -1 $-1 $94 $94 $71 $96 forward $68 $-1 #
coedge $116 -1 $-1 $95 $95 $115 $117 forward $70 $-1 #
edge $-1 -1 $-1 $118 -3.141592653589793116 $118 3.141592653589793116 $71 $119 forward @7 unknown #
DXID-attrib $-1 -1 $-1 $-1 $73 @10 ASM ENTITY @1 3 #
face $120 -1 $-1 $121 $122 $17 $-1 $123 forward single #
loop $-1 -1 $-1 $-1 $124 $73 #
plane-surface $-1 -1 $-1 154.7748613665659434 -198.1461221055716919 68.37126073900580536 7.719519468096734871e-17 1.006139616066545033e-16 1 9.99999999999998046 5.273559366969480945e-14 -7.719519468096772835e-16 forward_v I I I I #
coedge $125 -1 $-1 $126 $127 $128 $129 reversed $74 $-1 #
ATTRIB_CUSTOM-attrib $-1 -1 $-1 $-1 $77 @17 sketch_attrib_def 1 1 2 122 0 0 1 1 0 #
coedge $-1 -1 $-1 $103 $103 $77 $104 forward $130 $-1 #
edge $-1 -1 $-1 $131 -3.141592653589793116 $131 3.141592653589793116 $103 $132 forward @7 unknown #
vertex $-1 -1 $-1 $78 $133 #
ellipse-curve $-1 -1 $-1 204.774861366564835 -18.14612210557177718 -6.628739260994026772 5.273559366969490412e-15 -1 1.006139616066540966e-16 -39.99999999999992184 -2.109423746787792378e-13 3.087807787238709134e-15 1 I I #
coedge $-1 -1 $-1 $107 $107 $83 $108 forward $80 $-1 #
edge $-1 -1 $-1 $134 0 $134 6.283185307179586232 $107 $135 forward @7 unknown #
vertex $-1 -1 $-1 $84 $136 #
ellipse-curve $-1 -1 $-1 254.7748613665659434 -198.1461221055710666 68.37126073900597589 1.571861241325646526e-31 -3.67236218689814023e-16 -1 25 1.318389841742372634e-13 -4.448639692073899989e-29 1 I I #
coedge $-1 -1 $-1 $111 $111 $89 $112 forward $86 $-1 #
edge $-1 -1 $-1 $137 0 $137 6.283185307179586232 $111 $138 forward @7 unknown #
vertex $-1 -1 $-1 $90 $139 #
ellipse-curve $-1 -1 $-1 254.7748613665655739 -198.1461221055711803 -101.6287392609937257 7.23825098189627004e-32 -3.67236218689814023e-16 -1 25 1.318389841742372634e-13 -4.660648727857904694e-29 1 I I #
coedge $140 -1 $-1 $115 $115 $95 $117 reversed $92 $-1 #
ATTRIB_CUSTOM-attrib $-1 -1 $-1 $-1 $95 @17 sketch_attrib_def 1 1 2 102 0 0 1 1 0 #
edge $-1 -1 $-1 $141 -3.141592653589793116 $141 3.141592653589793116 $95 $142 forward @7 unknown #
vertex $-1 -1 $-1 $96 $143 #
ellipse-curve $-1 -1 $-1 204.7748613665672792 481.8538778944278533 -6.628739260994077398 -7.76691435384906885e-33 1 -1.00613961606654491e-16 40 1.916034650874912333e-59 -3.08780778723869454e-15 1 I I #
DXID-attrib $-1 -1 $-1 $-1 $98 @10 ASM ENTITY @1 4 #
face $144 -1 $-1 $145 $146 $17 $-1 $147 forward single #
loop $-1 -1 $-1 $-1 $148 $98 #
plane-surface $-1 -1 $-1 154.7748613665658013 -198.1461221055717203 -81.62873926099391042 -1 -5.2735593669694912e-15 1.02458550902776815e-15 1.024585509027765587e-14 1.00613961606659308e-15 9.99999999999998046 forward_v I I I I #
coedge $149 -1 $-1 $150 $151 $152 $153 reversed $99 $-1 #
ATTRIB_CUSTOM-attrib $-1 -1 $-1 $-1 $101 @17 sketch_attrib_def 1 1 2 108 0 1 1 1 0 #
coedge $-1 -1 $-1 $154 $101 $155 $156 forward $74 $-1 #
coedge $-1 -1 $-1 $101 $154 $150 $157 reversed $74 $-1 #
coedge $158 -1 $-1 $152 $159 $101 $129 forward $160 $-1 #
edge $-1 -1 $-1 $161 0 $162 15 $101 $163 forward @7 unknown #
loop $-1 -1 $-1 $164 $103 $145 #
vertex $-1 -1 $-1 $104 $165 #
ellipse-curve $-1 -1 $-1 204.7748613665647213 1.853877894428165973 -6.628739260994029436 5.273559366969490412e-15 -1 1.006139616066540966e-16 -39.99999999999992184 -2.109423746787792378e-13 3.087807787238709134e-15 1 I I #
point $-1 -1 $-1 244.7748613665647497 -18.14612210557157823 -6.628739260994034765 #
vertex $-1 -1 $-1 $108 $166 #
ellipse-curve $-1 -1 $-1 254.7748613665659434 -198.1461221055710666 88.37126073900597589 -1.571861241325646526e-31 3.67236218689814023e-16 1 25 1.318389841742372634e-13 -4.448639692073899989e-29 1 I I #
point $-1 -1 $-1 279.774861366565915 -198.1461221055709245 68.37126073900597589 #
vertex $-1 -1 $-1 $112 $167 #
ellipse-curve $-1 -1 $-1 254.7748613665655739 -198.1461221055711803 -81.62873926099372568 -7.23825098189627004e-32 3.67236218689814023e-16 1 25 1.318389841742372634e-13 -4.660648727857904694e-29 1 I I #
point $-1 -1 $-1 279.7748613665655739 -198.1461221055710382 -101.6287392609937257 #
ATTRIB_CUSTOM-attrib $-1 -1 $-1 $-1 $115 @17 sketch_attrib_def 1 1 2 102 0 0 1 1 0 #
vertex $-1 -1 $-1 $117 $168 #
ellipse-curve $-1 -1 $-1 204.7748613665672792 -18.14612210557214667 -6.628739260994026772 -7.76691435384906885e-33 1 -1.00613961606654491e-16 40 1.916034650874912333e-59 -3.08780778723869454e-15 1 I I #
point $-1 -1 $-1 164.7748613665672792 481.8538778944278533 -6.628739260994069404 #
DXID-attrib $-1 -1 $-1 $-1 $121 @10 ASM ENTITY @1 5 #
face $169 -1 $-1 $170 $130 $17 $-1 $171 forward single #
loop $-1 -1 $-1 $-1 $172 $121 #
plane-surface $-1 -1 $-1 254.7748613665656023 -198.1461221055711803 -81.62873926099391042 -7.719519468096734871e-17 -1.006139616066545033e-16 -1 -9.99999999999998046 -5.273559366969480945e-14 7.719519468096772835e-16 forward_v I I I I #
coedge $173 -1 $-1 $174 $175 $176 $177 reversed $122 $-1 #
ATTRIB_CUSTOM-attrib $-1 -1 $-1 $-1 $124 @17 sketch_attrib_def 1 1 2 105 0 1 1 1 0 #
coedge $-1 -1 $-1 $178 $124 $127 $157 forward $99 $-1 #
coedge $-1 -1 $-1 $124 $178 $174 $179 reversed $99 $-1 #
coedge $180 -1 $-1 $176 $128 $124 $153 forward $160 $-1 #
edge $-1 -1 $-1 $162 0 $181 9.999999999999985789 $124 $182 forward @7 unknown #
coedge $-1 -1 $-1 $127 $126 $183 $184 reversed $74 $-1 #
coedge $-1 -1 $-1 $172 $185 $126 $156 reversed $146 $-1 #
edge $-1 -1 $-1 $161 0 $186 20 $155 $187 forward @7 unknown #
edge $-1 -1 $-1 $162 0 $188 20 $150 $189 forward @7 unknown #
ATTRIB_CUSTOM-attrib $-1 -1 $-1 $-1 $128 @17 sketch_attrib_def 1 1 2 108 0 1 1 1 0 #
coedge $190 -1 $-1 $128 $176 $172 $191 forward $160 $-1 #
loop $-1 -1 $-1 $-1 $159 $170 #
vertex $-1 -1 $-1 $129 $192 #
vertex $-1 -1 $-1 $129 $193 #
straight-curve $-1 -1 $-1 254.7748613665656023 -198.1461221055711803 -81.62873926099391042 7.719519468096719587e-16 1.006139616066542987e-15 9.99999999999998046 F 0 F 15 #
loop $-1 -1 $-1 $-1 $194 $145 #
point $-1 -1 $-1 244.774861366564636 1.853877894428393347 -6.62873926099403743 #
point $-1 -1 $-1 279.774861366565915 -198.1461221055709245 88.37126073900597589 #
point $-1 -1 $-1 279.7748613665655739 -198.1461221055710382 -81.62873926099372568 #
point $-1 -1 $-1 164.7748613665672792 -18.14612210557214667 -6.628739260994018778 #
DXID-attrib $-1 -1 $-1 $-1 $145 @10 ASM ENTITY @1 6 #
face $195 -1 $-1 $-1 $160 $17 $-1 $196 reversed single #
plane-surface $-1 -1 $-1 204.774861366564636 1.853877894428165973 -6.628739260994073845 -5.273559366969490412e-15 1 -1.006139616066540966e-16 7.719519468096719587e-16 1.006139616066542987e-15 9.99999999999998046 forward_v I I I I #
coedge $197 -1 $-1 $198 $155 $159 $191 reversed $146 $-1 #
ATTRIB_CUSTOM-attrib $-1 -1 $-1 $-1 $148 @17 sketch_attrib_def 1 1 2 106 0 1 1 1 0 #
coedge $-1 -1 $-1 $199 $148 $151 $179 forward $122 $-1 #
coedge $-1 -1 $-1 $148 $199 $198 $200 reversed $122 $-1 #
coedge $201 -1 $-1 $159 $152 $148 $177 forward $160 $-1 #
edge $-1 -1 $-1 $181 0 $202 15 $148 $203 forward @7 unknown #
coedge $-1 -1 $-1 $151 $150 $204 $205 reversed $99 $-1 #
edge $-1 -1 $-1 $181 0 $206 20 $174 $207 forward @7 unknown #
ATTRIB_CUSTOM-attrib $-1 -1 $-1 $-1 $152 @17 sketch_attrib_def 1 1 2 105 0 1 1 1 0 #
vertex $-1 -1 $-1 $153 $208 #
straight-curve $-1 -1 $-1 254.7748613665656308 -198.1461221055711519 68.37126073900580536 -9.99999999999998046 -5.273559366969480945e-14 7.719519468096772835e-16 F 0 F 9.999999999999985789 #
coedge $-1 -1 $-1 $194 $204 $154 $184 forward $164 $-1 #
edge $-1 -1 $-1 $188 -15 $186 -0 $154 $209 forward @7 unknown #
coedge $-1 -1 $-1 $155 $198 $194 $210 reversed $146 $-1 #
vertex $-1 -1 $-1 $156 $211 #
straight-curve $-1 -1 $-1 254.7748613665656023 -198.1461221055711803 -81.62873926099391042 -5.273559366969480314e-14 9.99999999999998046 -1.006139616066539043e-15 I I #
vertex $-1 -1 $-1 $184 $212 #
straight-curve $-1 -1 $-1 254.7748613665656308 -198.1461221055711519 68.37126073900580536 -5.273559366969480314e-14 9.99999999999998046 -1.006139616066539043e-15 I I #
ATTRIB_CUSTOM-attrib $-1 -1 $-1 $-1 $159 @17 sketch_attrib_def 1 1 2 107 0 1 1 1 0 #
edge $-1 -1 $-1 $202 0 $161 10 $172 $213 forward @7 unknown #
point $-1 -1 $-1 254.7748613665656023 -198.1461221055711803 -81.62873926099391042 #
point $-1 -1 $-1 254.7748613665656308 -198.1461221055711519 68.37126073900580536 #
coedge $-1 -1 $-1 $214 $183 $185 $210 forward $164 $-1 #
DXID-attrib $-1 -1 $-1 $-1 $170 @10 ASM ENTITY @1 7 #
plane-surface $-1 -1 $-1 204.774861366565716 -198.1461221055714361 -6.628739260994053417 -5.273559366969490412e-15 1 -1.006139616066540966e-16 9.99999999999998046 5.273559366969480945e-14 -7.719519468096772835e-16 forward_v I I I I #
ATTRIB_CUSTOM-attrib $-1 -1 $-1 $-1 $172 @17 sketch_attrib_def 1 1 2 107 0 1 1 1 0 #
coedge $-1 -1 $-1 $185 $172 $175 $200 forward $146 $-1 #
coedge $-1 -1 $-1 $175 $174 $214 $215 reversed $122 $-1 #
edge $-1 -1 $-1 $202 0 $216 20 $198 $217 forward @7 unknown #
ATTRIB_CUSTOM-attrib $-1 -1 $-1 $-1 $176 @17 sketch_attrib_def 1 1 2 106 0 1 1 1 0 #
vertex $-1 -1 $-1 $177 $218 #
straight-curve $-1 -1 $-1 154.7748613665659434 -198.1461221055716919 68.37126073900580536 -1.024585509027765587e-14 -1.00613961606659308e-15 -9.99999999999998046 F 0 F 15 #
coedge $-1 -1 $-1 $183 $214 $178 $205 forward $164 $-1 #
edge $-1 -1 $-1 $206 -9.999999999999985789 $188 -0 $178 $219 forward @7 unknown #
vertex $-1 -1 $-1 $205 $220 #
straight-curve $-1 -1 $-1 154.7748613665659434 -198.1461221055716919 68.37126073900580536 -5.273559366969480314e-14 9.99999999999998046 -1.006139616066539043e-15 I I #
point $-1 -1 $-1 154.7748613665659434 -198.1461221055716919 68.37126073900580536 #
straight-curve $-1 -1 $-1 254.7748613665645507 1.853877894428421769 -81.62873926099393884 -7.719519468096719587e-16 -1.006139616066542987e-15 -9.99999999999998046 I I #
edge $-1 -1 $-1 $186 -10 $216 -0 $185 $221 forward @7 unknown #
point $-1 -1 $-1 254.7748613665645507 1.853877894428421769 -81.62873926099393884 #
point $-1 -1 $-1 254.7748613665645507 1.853877894428421769 68.37126073900577694 #
straight-curve $-1 -1 $-1 154.7748613665658013 -198.1461221055717203 -81.62873926099391042 9.99999999999998046 5.273559366969480945e-14 -7.719519468096772835e-16 F 0 F 10 #
coedge $-1 -1 $-1 $204 $194 $199 $215 forward $164 $-1 #
edge $-1 -1 $-1 $216 -15 $206 -0 $199 $222 forward @7 unknown #
vertex $-1 -1 $-1 $215 $223 #
straight-curve $-1 -1 $-1 154.7748613665658013 -198.1461221055717203 -81.62873926099391042 -5.273559366969480314e-14 9.99999999999998046 -1.006139616066539043e-15 I I #
point $-1 -1 $-1 154.7748613665658013 -198.1461221055717203 -81.62873926099391042 #
straight-curve $-1 -1 $-1 254.7748613665645507 1.853877894428421769 68.37126073900577694 9.99999999999998046 5.273559366969480945e-14 -7.719519468096772835e-16 I I #
point $-1 -1 $-1 154.7748613665648918 1.8538778944279386 68.37126073900577694 #
straight-curve $-1 -1 $-1 154.7748613665647213 1.8538778944279386 -81.62873926099392463 -9.99999999999998046 -5.273559366969480945e-14 7.719519468096772835e-16 I I #
straight-curve $-1 -1 $-1 154.7748613665648918 1.8538778944279386 68.37126073900577694 1.024585509027765587e-14 1.00613961606659308e-15 9.99999999999998046 I I #
point $-1 -1 $-1 154.7748613665647213 1.8538778944279386 -81.62873926099392463 #
End-of-ACIS-data 